<?xml version="1.0" encoding="UTF-8"?>
<svg id="Layer_1" xmlns="http://www.w3.org/2000/svg" version="1.1" viewBox="0 0 500 500">
  <!-- Generator: Adobe Illustrator 30.3.0, SVG Export Plug-In . SVG Version: 2.1.3 Build 182)  -->
  <defs>
    <style>
      .st0 {
        fill: #fff;
      }
    </style>
  </defs>
  <polygon class="st0" points="61.45 136.88 61.42 136.88 23.77 136.88 23.74 136.88 23.74 363.14 23.77 363.14 61.42 363.14 61.45 363.14 61.45 136.88"/>
  <path class="st0" d="M325.41,136.88h37.69v226.26h-37.71v-150.85l-64.99,105.71h-20.85l-64.99-105.71v150.85h-37.71v-226.26h37.72s75.4,129.61,75.4,129.61l75.43-129.61Z"/>
  <path class="st0" d="M476.27,61.51v376.98c0,20.86-16.91,37.76-37.76,37.76H61.52c-20.86,0-37.76-16.88-37.79-37.71v-37.71h37.71v37.71h377.13V61.45H61.44v37.71H23.73v-37.71c.03-20.83,16.94-37.71,37.79-37.71h376.98c20.86,0,37.76,16.91,37.76,37.76Z"/>
</svg>